<svg width="139" height="145" viewBox="0 0 139 145" fill="none" xmlns="http://www.w3.org/2000/svg">
<path d="M108.722 125.763L139 110.885L30.4011 57.6617L0.0820542 72.5L108.681 125.763H108.722ZM69.5 145L99.9093 130.113L30.4093 95.9981L0.213341 110.885L69.5 145ZM138.918 72.5L108.599 87.3383L78.3619 72.5L108.64 57.6617L138.918 72.5ZM39.1399 14.9269L69.5328 0L99.8929 14.9269L69.5 29.7653L39.1399 14.8867V14.9269ZM30.278 19.2367L0 34.1153L69.5 68.1903L99.7781 53.3519L30.278 19.2769V19.2367ZM108.599 49.0422L138.959 34.1153L108.681 19.3172L78.2716 34.2039L108.599 49.0422Z" fill="#1E1E1E"/>
</svg>
